<svg viewBox="0 0 25 25" xmlns="http://www.w3.org/2000/svg">
  <path d="M21 5.75V11.375C21 11.4745 20.9605 11.5698 20.8902 11.6402C20.8198 11.7105 20.7245 11.75 20.625 11.75H13.5V4.625C13.5 4.52554 13.5395 4.43016 13.6098 4.35984C13.6802 4.28951 13.7755 4.25 13.875 4.25H19.5C19.8978 4.25 20.2794 4.40804 20.5607 4.68934C20.842 4.97064 21 5.35218 21 5.75ZM11.625 4.25H6C5.60218 4.25 5.22064 4.40804 4.93934 4.68934C4.65804 4.97064 4.5 5.35218 4.5 5.75V11.375C4.5 11.4745 4.53951 11.5698 4.60984 11.6402C4.68016 11.7105 4.77554 11.75 4.875 11.75H12V4.625C12 4.52554 11.9605 4.43016 11.8902 4.35984C11.8198 4.28951 11.7245 4.25 11.625 4.25ZM20.625 13.25H13.5V20.375C13.5 20.4745 13.5395 20.5698 13.6098 20.6402C13.6802 20.7105 13.7755 20.75 13.875 20.75H19.5C19.8978 20.75 20.2794 20.592 20.5607 20.3107C20.842 20.0294 21 19.6478 21 19.25V13.625C21 13.5255 20.9605 13.4302 20.8902 13.3598C20.8198 13.2895 20.7245 13.25 20.625 13.25ZM4.5 13.625V19.25C4.5 19.6478 4.65804 20.0294 4.93934 20.3107C5.22064 20.592 5.60218 20.75 6 20.75H11.625C11.7245 20.75 11.8198 20.7105 11.8902 20.6402C11.9605 20.5698 12 20.4745 12 20.375V13.25H4.875C4.77554 13.25 4.68016 13.2895 4.60984 13.3598C4.53951 13.4302 4.5 13.5255 4.5 13.625Z" />
</svg>
