<svg viewBox="0 0 24 24" xmlns="http://www.w3.org/2000/svg">
  <path d="M23.5638 10.4999L17.2395 4.13242C15.5504 2.44673 13.2616 1.5 10.8752 1.5C8.48893 1.5 6.20009 2.44673 4.51102 4.13242L4.50259 4.14086L3.21165 5.47492C3.07792 5.61863 3.00587 5.80905 3.01096 6.00529C3.01605 6.20153 3.09788 6.38795 3.23889 6.52454C3.37989 6.66112 3.56882 6.73698 3.76512 6.73582C3.96143 6.73466 4.14945 6.65659 4.28884 6.51836L5.57602 5.18898C6.09389 4.67122 6.68486 4.23218 7.33009 3.88586L11.6895 8.24992L2.68946 17.2499C2.55014 17.3892 2.43962 17.5546 2.36421 17.7366C2.28881 17.9186 2.25 18.1137 2.25 18.3107C2.25 18.5077 2.28881 18.7028 2.36421 18.8848C2.43962 19.0668 2.55014 19.2322 2.68946 19.3715L4.62915 21.3112C4.76844 21.4505 4.93381 21.561 5.11583 21.6364C5.29784 21.7118 5.49292 21.7506 5.68993 21.7506C5.88694 21.7506 6.08202 21.7118 6.26403 21.6364C6.44604 21.561 6.61142 21.4505 6.75071 21.3112L15.7507 12.3112L18.7507 15.3112C18.89 15.4505 19.0554 15.561 19.2374 15.6364C19.4194 15.7118 19.6145 15.7506 19.8115 15.7506C20.0085 15.7506 20.2036 15.7118 20.3856 15.6364C20.5676 15.561 20.733 15.4505 20.8723 15.3112L23.562 12.6215C23.7014 12.4823 23.8121 12.317 23.8876 12.1351C23.9632 11.9531 24.0022 11.7581 24.0024 11.5611C24.0025 11.3641 23.9639 11.169 23.8887 10.9869C23.8134 10.8048 23.703 10.6393 23.5638 10.4999ZM15.2201 10.7184L13.1257 12.8127L11.186 10.8749L13.2813 8.77961C13.3511 8.70995 13.4064 8.62724 13.4441 8.53619C13.4819 8.44514 13.5013 8.34754 13.5013 8.24898C13.5013 8.15042 13.4819 8.05283 13.4441 7.96178C13.4064 7.87073 13.3511 7.78801 13.2813 7.71836L8.84321 3.28117C10.1255 2.92004 11.4808 2.90695 12.7697 3.24324C14.0587 3.57954 15.2349 4.25308 16.1773 5.19461L20.3229 9.36742L17.6257 12.0618L16.2813 10.7174C16.2117 10.6477 16.129 10.5924 16.0379 10.5546C15.9469 10.5169 15.8493 10.4975 15.7507 10.4975C15.6521 10.4975 15.5546 10.5169 15.4635 10.5546C15.3725 10.5924 15.2897 10.6477 15.2201 10.7174V10.7184ZM19.8138 14.249L18.6888 13.124L21.3757 10.4296L22.5007 11.5546L19.8138 14.249Z" />
</svg>
