<svg viewBox="0 0 25 25" xmlns="http://www.w3.org/2000/svg">
  <path d="M22.2113 5.15854C22.1214 5.08854 22.0168 5.03992 21.9054 5.01636C21.7939 4.99281 21.6786 4.99494 21.5681 5.0226L15.8372 6.4551L10.0856 3.57885C9.92537 3.49892 9.74181 3.47897 9.56812 3.5226L3.56812 5.0226C3.40587 5.06316 3.26183 5.15679 3.15889 5.2886C3.05595 5.42042 3.00003 5.58286 3 5.7501V19.2501C3.00002 19.3641 3.02601 19.4765 3.07599 19.5789C3.12598 19.6814 3.19864 19.771 3.28847 19.8412C3.37831 19.9113 3.48294 19.96 3.59442 19.9837C3.70591 20.0073 3.82131 20.0052 3.93187 19.9776L9.66281 18.5451L15.4144 21.4214C15.5188 21.4728 15.6336 21.4998 15.75 21.5001C15.8113 21.5001 15.8724 21.4925 15.9319 21.4776L21.9319 19.9776C22.0941 19.937 22.2382 19.8434 22.3411 19.7116C22.444 19.5798 22.5 19.4174 22.5 19.2501V5.7501C22.5 5.63603 22.474 5.52346 22.424 5.42095C22.374 5.31844 22.3012 5.2287 22.2113 5.15854ZM10.5 5.46323L15 7.71323V19.537L10.5 17.287V5.46323ZM4.5 6.33604L9 5.21104V17.1642L4.5 18.2892V6.33604ZM21 18.6642L16.5 19.7892V7.83604L21 6.71104V18.6642Z" />
</svg>
