<svg width="95" height="32" viewBox="0 0 95 32" fill="none" xmlns="http://www.w3.org/2000/svg">
<g clip-path="url(#clip0_4444_20148)">
<path d="M0.339844 31.9075V29.3223H0.868459L1.71882 31.439H1.74756L2.60367 29.3223H3.12078V31.9075H2.82201V29.7444H2.78753L1.91992 31.9075H1.60391L0.742052 29.7444H0.707579V31.9075H0.339844Z" fill="white"/>
<path d="M7.22266 31.9075L8.19369 29.3223H8.64185L9.60138 31.9075H9.28537L9.06703 31.3291H7.75701L7.53866 31.9075H7.22266ZM7.85469 31.0515H8.96937L8.435 29.6114H8.40053L7.85469 31.0515Z" fill="white"/>
<path d="M13.4629 31.9075L14.4339 29.3223H14.8821L15.8416 31.9075H15.5256L15.3073 31.3291H13.9973L13.7789 31.9075H13.4629ZM14.0949 31.0515H15.2154L14.6753 29.6114H14.6408L14.0949 31.0515Z" fill="white"/>
<path d="M19.9375 31.9075V29.3223H21.0579C21.6325 29.3223 21.983 29.6288 21.983 30.103C21.9816 30.2088 21.959 30.3133 21.9165 30.4101C21.8741 30.5069 21.8126 30.5941 21.7359 30.6665C21.6592 30.7388 21.5688 30.7948 21.4701 30.8312C21.3713 30.8676 21.2663 30.8835 21.1613 30.878H21.1211L22.0519 31.9075H21.6325L20.7419 30.8954H20.2707V31.9075H19.9375ZM20.2707 30.6004H21.0579C21.4256 30.6004 21.6325 30.4095 21.6325 30.103C21.6325 29.7965 21.4084 29.6114 21.0579 29.6114H20.2707V30.6004Z" fill="white"/>
<path d="M30.7168 31.9075V29.3223H31.5499C31.733 29.2986 31.919 29.3142 32.0957 29.3679C32.2724 29.4217 32.4358 29.5124 32.5753 29.6342C32.7147 29.756 32.8269 29.906 32.9047 30.0745C32.9825 30.243 33.024 30.4262 33.0266 30.612C33.0249 30.7982 32.9839 30.982 32.9065 31.1512C32.8291 31.3204 32.7169 31.4712 32.5774 31.5936C32.4379 31.716 32.2742 31.8073 32.0971 31.8614C31.92 31.9154 31.7335 31.9312 31.5499 31.9075H30.7168ZM31.0501 31.6125H31.5442C32.2337 31.6125 32.6933 31.2308 32.6933 30.612C32.6922 30.4672 32.6605 30.3244 32.6002 30.193C32.5399 30.0616 32.4524 29.9447 32.3437 29.85C32.2349 29.7553 32.1074 29.685 31.9695 29.6439C31.8316 29.6028 31.6866 29.5917 31.5442 29.6114H31.0501V31.6125Z" fill="white"/>
<path d="M37.1973 31.9075V29.3223H38.9612V29.6114H37.5363V30.4211H38.8176V30.7161H37.5363V31.6125H39.0187V31.9075H37.1973Z" fill="white"/>
<path d="M43.8451 31.9075L42.9258 29.3223H43.2648L44.0864 31.6357H44.1209L44.9368 29.3223H45.2758L44.3622 31.9075H43.8451Z" fill="white"/>
<path d="M49.3613 31.9075V29.3223H51.1253V29.6114H49.7003V30.4211H50.9816V30.7161H49.7003V31.6125H51.1655V31.9075H49.3613Z" fill="white"/>
<path d="M55.3379 31.9075V29.3223H55.6712V31.6357H56.9639V31.9306L55.3379 31.9075Z" fill="white"/>
<path d="M60.755 30.6121C60.7484 30.4278 60.7799 30.2442 60.8473 30.0727C60.9148 29.9013 61.0167 29.7457 61.1468 29.6159C61.2769 29.4861 61.4322 29.3847 61.6031 29.3183C61.774 29.2518 61.9567 29.2217 62.1397 29.2298C62.3232 29.2209 62.5065 29.2504 62.6781 29.3165C62.8496 29.3826 63.0057 29.4838 63.1364 29.6137C63.2671 29.7436 63.3696 29.8994 63.4374 30.0713C63.5051 30.2432 63.5367 30.4273 63.5302 30.6121C63.5376 30.7973 63.5066 30.9821 63.4391 31.1547C63.3717 31.3272 63.2694 31.4837 63.1386 31.6143C63.0078 31.7449 62.8514 31.8466 62.6795 31.913C62.5075 31.9794 62.3237 32.0091 62.1397 32.0001C61.9562 32.0083 61.773 31.978 61.6017 31.9112C61.4304 31.8444 61.2748 31.7425 61.1446 31.6121C61.0145 31.4816 60.9126 31.3254 60.8455 31.1532C60.7785 30.9811 60.7476 30.7968 60.755 30.6121ZM63.1969 30.6121C63.2041 30.4693 63.1819 30.3267 63.1316 30.193C63.0813 30.0593 63.0041 29.9376 62.9048 29.8355C62.8055 29.7333 62.6862 29.653 62.5545 29.5995C62.4229 29.5461 62.2816 29.5206 62.1397 29.5248C61.9978 29.5206 61.8565 29.5461 61.7249 29.5995C61.5932 29.653 61.4739 29.7333 61.3746 29.8355C61.2753 29.9376 61.1981 30.0593 61.1478 30.193C61.0975 30.3267 61.0753 30.4693 61.0825 30.6121C61.0753 30.7551 61.0976 30.898 61.1478 31.032C61.198 31.1659 61.2751 31.288 61.3744 31.3906C61.4736 31.4932 61.5927 31.5741 61.7244 31.6282C61.8561 31.6823 61.9975 31.7085 62.1397 31.7052C62.2819 31.7085 62.4233 31.6823 62.5549 31.6282C62.6866 31.5741 62.8058 31.4932 62.905 31.3906C63.0043 31.288 63.0814 31.1659 63.1316 31.032C63.1818 30.898 63.2041 30.7551 63.1969 30.6121Z" fill="white"/>
<path d="M67.7012 31.9075V29.3223H68.7239C69.2985 29.3223 69.6547 29.6172 69.649 30.1146C69.6432 30.612 69.2755 30.9069 68.7239 30.9069H68.0287V31.9075H67.7012ZM68.0287 30.6062H68.7239C69.0974 30.6062 69.2985 30.4153 69.2985 30.1146C69.2985 29.8139 69.0744 29.6114 68.7239 29.6114H68.0287V30.6062Z" fill="white"/>
<path d="M73.7871 31.9075V29.3223H74.31L75.1603 31.439H75.1948L76.0452 29.3223H76.568V31.9075H76.2348V29.7444H76.2003L75.3384 31.9075H75.0167L74.1548 29.7444H74.1204V31.9075H73.7871Z" fill="white"/>
<path d="M80.9062 31.9075V29.3223H82.6874V29.6114H81.2567V30.4211H82.538V30.7161H81.2567V31.6125H82.6874V31.9075H80.9062Z" fill="white"/>
<path d="M86.875 31.9075V29.3223H87.3519L88.57 31.4679H88.6045V29.3223H88.932V31.9075H88.4608L87.2427 29.7618H87.2082V31.9075H86.875Z" fill="white"/>
<path d="M93.8172 31.9075V29.5941H92.9668V29.3049H95.0008V29.5941H94.1447V31.9075H93.8172Z" fill="white"/>
<path d="M11.4397 5.33816C10.3919 3.7765 8.97983 2.49709 7.32711 1.61187C5.67439 0.726641 3.83133 0.262577 1.95919 0.260264H-0.00585938V23.9725H3.92424V4.47641C5.5167 4.91364 6.92238 5.86527 7.92518 7.185C8.92798 8.50472 9.47235 10.1195 9.47461 11.7809H13.4047C13.407 10.1195 13.9513 8.50472 14.9541 7.185C15.9569 5.86527 17.3626 4.91364 18.9551 4.47641V23.961H22.8852V0.289174H20.9201C19.0503 0.286783 17.2084 0.74578 15.5556 1.62599C13.9028 2.50619 12.4896 3.78078 11.4397 5.33816ZM59.9337 0C57.3257 0.00306129 54.8255 1.04721 52.9814 2.90341C51.1373 4.7596 50.1 7.27626 50.097 9.90132V23.961H54.0271V23.7875C54.0286 22.2111 54.6514 20.6998 55.7588 19.5851C56.8661 18.4704 58.3676 17.8436 59.9337 17.842C61.5007 17.842 63.0037 18.4682 64.1123 19.5831C65.2209 20.6979 65.8445 22.2101 65.846 23.7875V23.961H69.7761V9.90132C69.7731 7.27626 68.7357 4.7596 66.8917 2.90341C65.0476 1.04721 62.5473 0.00306129 59.9394 0H59.9337ZM65.8518 15.9046C64.1498 14.6092 62.0732 13.9104 59.9394 13.9151C57.8076 13.9117 55.7332 14.6104 54.0328 15.9046V9.90132C54.0343 8.32443 54.6569 6.81248 55.7641 5.69691C56.8713 4.58134 58.3728 3.95317 59.9394 3.95011C61.507 3.95164 63.0099 4.57914 64.1184 5.69488C65.2269 6.81061 65.8503 8.32343 65.8518 9.90132V15.9046ZM36.4968 0.0289103C33.8889 0.0319716 31.3887 1.07614 29.5446 2.93233C27.7005 4.78853 26.6631 7.30519 26.6601 9.93024V23.9899H30.5845V23.8164C30.5875 22.2395 31.2116 20.7282 32.3199 19.6137C33.4281 18.4992 34.9302 17.8725 36.4968 17.871C38.0629 17.8725 39.5644 18.4994 40.6717 19.614C41.7791 20.7287 42.4019 22.24 42.4034 23.8164V23.9899H46.3335V9.90132C46.3305 7.27626 45.2931 4.7596 43.449 2.90341C41.605 1.04721 39.1047 0.00306129 36.4968 0V0.0289103ZM42.4034 15.9046C40.703 14.6104 38.6286 13.9117 36.4968 13.9151C34.363 13.9104 32.2864 14.6092 30.5845 15.9046V9.90132C30.5875 8.3239 31.2114 6.81196 32.3195 5.69656C33.4276 4.58115 34.9297 3.95317 36.4968 3.95011C38.0634 3.95317 39.5649 4.58134 40.6721 5.69691C41.7793 6.81248 42.4019 8.32443 42.4034 9.90132V15.9046ZM90.162 18.5476C91.3481 17.5857 92.305 16.3683 92.9623 14.9852C93.6195 13.602 93.9604 12.0881 93.9599 10.5549C93.956 7.8673 92.9069 5.28811 91.0373 3.36943C89.1676 1.45076 86.626 0.345099 83.9566 0.289174V4.25086C85.5831 4.30481 87.1253 4.99217 88.2582 6.16812C89.3911 7.34408 90.0263 8.91679 90.0298 10.5549C90.0283 12.2299 89.367 13.836 88.1908 15.021C87.0146 16.206 85.4196 16.8731 83.7555 16.8762C82.1273 16.8664 80.5665 16.2204 79.4024 15.0745C78.2383 13.9286 77.5618 12.3724 77.5156 10.7341H73.5798V23.961H77.5041V18.617C79.2953 20.033 81.5067 20.8028 83.7842 20.8032C84.7431 20.803 85.6969 20.6648 86.6169 20.3926L89.3174 23.7701H94.5287L90.162 18.5476ZM77.5214 7.20621V4.17567H80.5838C80.7652 4.17567 80.9391 4.10316 81.0673 3.9741C81.1955 3.84503 81.2676 3.66997 81.2676 3.48744V0.196636H73.5683V7.86554H76.8376C77.018 7.86401 77.1904 7.79083 77.3174 7.66193C77.4444 7.53303 77.5156 7.35884 77.5156 7.1773L77.5214 7.20621Z" fill="white"/>
</g>
<defs>
<clipPath id="clip0_4444_20148">
<rect width="95" height="32" fill="white"/>
</clipPath>
</defs>
</svg>
